<svg width="22" height="24" viewBox="0 0 22 24" fill="none" xmlns="http://www.w3.org/2000/svg">
<path id="star" d="M11.2447 0.674465C11.1784 0.683607 11.0961 0.701893 11.0618 0.715607C11.0275 0.729322 10.9498 0.749893 10.8881 0.765893C10.7144 0.80475 10.623 0.861893 10.4515 1.04475C9.94182 1.57504 9.29039 2.68818 8.67325 4.08246C8.48125 4.51675 8.17496 5.24361 7.33839 7.26875L7.10982 7.81732H6.76925C6.58182 7.81732 5.79553 7.80132 5.02296 7.78304C2.54982 7.72361 1.77039 7.73504 1.3201 7.84018C0.723533 7.98189 0.620676 8.03218 0.52239 8.22875C0.37839 8.51904 0.449247 8.80704 0.84239 9.52018C1.22868 10.2196 1.63553 10.6356 4.18182 12.9305C4.55439 13.2665 4.86525 13.5499 4.8721 13.5613C4.87896 13.5728 4.80125 13.8219 4.70068 14.1168C4.25268 15.4265 4.08582 15.975 3.54639 17.9316C2.89725 20.2745 2.84696 20.5145 2.84239 21.1453L2.8401 21.5133L2.93839 21.7053C2.99325 21.8105 3.05953 21.9133 3.08468 21.9339C3.13039 21.9682 3.1281 21.9728 3.02982 22.1282C2.80353 22.4848 2.48582 23.0242 2.48582 23.0539C2.4881 23.2322 2.95439 23.3168 3.41153 23.223C4.06753 23.0859 5.01153 22.6585 5.61039 22.2242C5.80239 22.087 6.43325 21.5796 8.13382 20.1945C9.13496 19.3785 10.2595 18.4688 10.2664 18.4688C10.2687 18.4688 10.511 18.6905 10.8058 18.9602C11.4138 19.5225 11.5258 19.623 12.2138 20.2516C12.4881 20.5008 12.9544 20.9328 13.2492 21.2116C14.2504 22.151 14.6572 22.5076 15.231 22.9396C15.551 23.1796 15.6995 23.2688 15.8801 23.3305C16.0058 23.3739 16.0332 23.3762 16.127 23.351C16.3372 23.2962 16.4744 23.1568 16.5681 22.9145C16.591 22.855 16.6344 22.7682 16.6641 22.7225C16.6961 22.679 16.7281 22.6036 16.7372 22.5556C16.7464 22.5076 16.7624 22.4573 16.7738 22.4436C16.783 22.4299 16.8195 22.3225 16.8538 22.2036C16.9864 21.735 16.9407 20.6493 16.7144 18.9145C16.5864 17.9293 16.3258 16.5145 15.9235 14.5968C15.8618 14.3019 15.8115 14.0413 15.8115 14.0208C15.8115 13.9819 16.0584 13.7968 17.0115 13.1133C17.2264 12.9602 17.487 12.7705 17.5944 12.695C18.2961 12.1876 18.8218 11.815 19.503 11.3373C20.6252 10.551 20.7532 10.439 20.9452 10.0573C21.1487 9.65732 21.2355 9.34418 21.2241 9.04704C21.215 8.75675 21.1784 8.71332 20.7692 8.50761C20.4081 8.32704 20.0607 8.22875 19.503 8.15104C18.9475 8.07332 18.6527 8.05961 16.9087 8.02304C15.9967 8.00247 15.0527 7.97961 14.8081 7.97047L14.3647 7.95447L14.1498 7.13161C13.5327 4.75675 13.231 3.73732 12.7784 2.50304C12.3921 1.45161 12.0675 0.86875 11.8184 0.78875C11.775 0.77275 11.7018 0.736179 11.6561 0.706465C11.5715 0.647036 11.4778 0.640179 11.2447 0.674465ZM11.5098 2.26989C11.8115 3.04018 12.1864 4.33161 12.5087 5.72589C12.6435 6.30647 13.0001 7.90189 13.0001 7.92704C13.0001 7.94075 12.6024 7.94532 11.8641 7.93389C10.3555 7.91332 8.30525 7.87218 8.29382 7.86075C8.28925 7.85618 8.32353 7.76704 8.37153 7.66418C8.41725 7.55904 8.72353 6.87561 9.0481 6.14418C9.37268 5.41275 9.7201 4.64704 9.81839 4.44132C10.1292 3.79446 10.5201 3.10189 10.8881 2.54875C11.0801 2.25618 11.343 1.94532 11.3772 1.96589C11.3887 1.97275 11.4481 2.10989 11.5098 2.26989ZM4.71439 9.15447C6.12925 9.18189 6.5361 9.20018 6.52239 9.23218C6.46753 9.35332 5.96696 10.6402 5.78639 11.1248C5.66296 11.4608 5.55325 11.7373 5.54639 11.7373C5.53953 11.7373 5.43668 11.6482 5.31782 11.5385C4.81953 11.079 3.70639 10.0848 3.1921 9.64132L2.64125 9.16589L2.8081 9.15218C3.08925 9.13161 3.56239 9.13161 4.71439 9.15447ZM8.22753 9.30304C8.50868 9.32361 9.22182 9.38075 9.81153 9.43104C11.4344 9.56818 12.2481 9.62989 12.8287 9.65961C13.1441 9.67561 13.3658 9.69618 13.3795 9.71218C13.407 9.73732 13.471 10.039 13.8915 12.103L14.111 13.1865L13.8618 13.3465C13.1372 13.8036 11.7658 14.7362 10.6618 15.5179C10.3464 15.7419 10.0744 15.9316 10.0584 15.9362C10.0424 15.943 9.80925 15.7396 9.54182 15.4836C8.96582 14.9305 8.36239 14.3636 7.18296 13.2688C6.70525 12.8253 6.31668 12.4528 6.32125 12.4368C6.32582 12.423 6.43096 12.1442 6.55896 11.8173C6.89268 10.9579 7.21725 10.183 7.58296 9.37618C7.61496 9.30304 7.64468 9.26875 7.67439 9.26875C7.69953 9.26875 7.94868 9.28475 8.22753 9.30304ZM15.9487 9.82875C16.3692 9.84704 17.0184 9.87218 17.3887 9.88589C18.7738 9.93618 19.1075 9.95218 19.1167 9.96132C19.1372 9.97961 18.111 10.6813 17.2058 11.2688C16.7052 11.591 15.471 12.3545 15.4481 12.3545C15.4412 12.3545 15.4047 12.2242 15.3704 12.0619C15.2812 11.6642 14.8515 9.84018 14.8355 9.79904C14.8241 9.77161 14.8492 9.76932 15.0024 9.78075C15.1007 9.78989 15.5281 9.81047 15.9487 9.82875ZM6.59782 15.1179C7.4161 15.8539 8.11325 16.4893 8.49268 16.8413C8.56125 16.903 8.60696 16.9625 8.59553 16.9693C8.17039 17.2619 7.5601 17.703 7.17153 17.9956C6.15668 18.7636 4.76468 19.9408 4.31668 20.4139C4.13839 20.6036 3.72696 21.1019 3.57839 21.3145C3.53725 21.3693 3.53725 21.367 3.55096 21.2002C3.57153 20.9488 3.64468 20.535 3.71096 20.2859C3.7841 20.0162 4.53839 17.495 4.73725 16.8573C5.08925 15.7305 5.61268 14.2448 5.64925 14.2676C5.66068 14.2768 6.0881 14.6585 6.59782 15.1179ZM14.4858 15.0288C14.4858 15.0425 14.5475 15.3739 14.623 15.7648C15.0275 17.863 15.1898 18.9853 15.3155 20.5648L15.3452 20.9236L14.5887 20.1762C14.175 19.7648 13.6127 19.2276 13.343 18.983C12.847 18.535 11.9944 17.7579 11.7224 17.5042L11.5761 17.3693L12.0172 16.9945C12.9955 16.1625 14.4172 15.0059 14.463 15.0059C14.4767 15.0059 14.4858 15.0173 14.4858 15.0288Z" fill="#EA4335"/>
</svg>
